<?xml version="1.0" encoding="utf-8"?>
<!-- Generator: Adobe Illustrator 16.0.0, SVG Export Plug-In . SVG Version: 6.00 Build 0)  -->
<!DOCTYPE svg PUBLIC "-//W3C//DTD SVG 1.0//EN" "http://www.w3.org/TR/2001/REC-SVG-20010904/DTD/svg10.dtd">
<svg version="1.0" id="Layer_1" xmlns="http://www.w3.org/2000/svg" xmlns:xlink="http://www.w3.org/1999/xlink" x="0px" y="0px"
	 width="960px" height="560px" viewBox="0 0 960 560" enable-background="new 0 0 960 560" xml:space="preserve">
<path fill="none" stroke="#FF0000" stroke-miterlimit="10" d="M6.666,16L20,7.333c0,0,18-2.667,20-2.667s23.333,4.667,23.333,4.667
	l14,12.667c0,0,2,14,4.667,15.333S100,58,100,58l18,12.667L135.333,86c0,0,12,14.667,12,16.667s8,18,10,19.333
	S180,134.666,182,136.666s22.667,14.667,25.333,16.667s38,12,40,12s33.333-8,33.333-8s14-4.667,16-4s14.667-4.667,14.667-4.667
	s20-2,22-1.333S346,148,348,150s22.667,10.667,22.667,10.667s14,2.667,16,4.667s11.333,8,14,9.333s10,5.334,12.667,6.667s14,2,16,2
	s8-4.667,8-4.667l17.333-5.333c0,0,9.333-4.667,11.333-5.333s10-3.333,12-4.667s2-3.333,6-5.333c4-2,10-10,10-10l15.332-18L528,102
	c0,0,5.998-10,7.332-12.667S548.666,76.666,552,76c3.332-0.667,23.332-8.667,25.332-8.667s16-2,18.668-2c2.666,0,28,8,28,8
	s10,8,12.666,10.667s12,9.333,14,10.667s12.668,8.667,14,10.667c1.334,2,4,14,6.666,16c2.668,2,13.334,17.333,16,18
	C690,140,695.998,150,699.332,152s6.668,6.667,6.668,6.667l1.332,7.333c0,0,4,9.333,6.668,12.667c2.666,3.333,3.332,15.334,6,18.667
	c2.666,3.333,6,8,6.666,12.667s2.666,20.667,5.334,23.333c2.666,2.667,6,22.666,6.666,26s8,20.667,8,20.667l4.666,20.667
	l0.668,8.666"/>
<path fill="none" stroke="#FF0000" stroke-miterlimit="10" d="M8,27.333l11.333-6c0,0,7.333-2,10-1.333s16,1.333,16,1.333L64.666,32
	l10,18.667L82,57.333L92,66l6.667,10.667L108,82l14,11.333L132.666,106c0,0,6.667,14.667,9.333,16.667S158,134,158,134
	s6.667,11.333,8.667,13.333s19.333,16,19.333,16s10.667,0.667,12.667,2s12,3.333,16.667,6s21.333,8,21.333,8l24,0.667
	c0,0,16-6.667,21.333-6s22-0.667,26.667-2s16.667-6,22.667-6S352,170,352,170s8,2.667,10,4s12,4,15.333,5.333s16,4.667,20,6.667
	s12.667,6,14,8s4.667,1.333,8,3.333s12,1.333,14.667,2s20.667-8,20.667-8s9.334-8,12.667-9.333s11.333-7.333,14-6.667
	c2.667,0.667,7.333-2,9.333-1.333s2-0.667,7.334-4c5.333-3.333,11.998-17.333,15.332-18.667s20-35.333,20-35.333s10-14,12.668-16
	c2.666-2,11.332-13.333,16-13.333c4.666,0,22-8,28-7.333s21.332,2,23.332,4s9.334,8,11.334,9.333s-0.666,2-2.666,2
	s-10.668-4-10.668-4s-0.666-6-4-5.333c-3.332,0.667-10-2.667-10-2.667l-10.666,2c0,0-6.668,0-7.334,2s-13.332,4-13.332,4L570,98
	l10.666-6.667c0,0,3.334-2.667,5.334-2S597.332,94,597.332,94s5.334,0.667,7.334,0.667S613.332,98,613.332,98s0.668,2,4.668,2.667
	s8.666-2,8.666-2l4,0.667c0,0,2.666-1.334,4.666,1.333s7.334,12,7.334,12s18,22,20,23.333s10,9.333,10,9.333l-21.334-8L640,122
	l-6.668-10l-28,12l2,8l23.334-8.667l7.334,2l0.666,4L610,136l2.666,6.667c0,0,26.666-12,28.666-10.667s4.668,5.333,4.668,5.333
	L644,142l-33.334,10.667l6,3.333c0,0,31.334-11.333,33.334-10.667s10.666-2,14,1.333c3.332,3.333,16.666,10.667,16.666,10.667
	L692,170.666c0,0,1.332,10.667,2,14.667c0.666,4,3.332,13.333,3.332,13.333S704,216,706,218s4,8,6,12s4.666,19.333,7.332,21.333
	c2.668,2,2,14,4,16.667S730,286,730,286l-26-23.333l-5.334-15.334L691.332,244l2.668,8l3.332,16l-14.666-6l-8-26L668,238l10,22.667
	L663.332,266l6,8.667c0,0,10.668-1.334,12.668-0.667s-2.666-1.333,4.666,0c7.334,1.333,14,2,20.666,4c6.668,2,6.668,2,6.668,2
	s3.332,0,4,2.667c0.666,2.666,1.998,2.666,5.332,6.666s-1.998-0.666,3.334,4c5.334,4.668,5.334,2.666,6,8s-2.666,6-0.666,10
	s2.666,5.334,4.666,8c2,2.668,1.334,4,3.334,6s5.332,6,6,8c0.666,2-2.668,6.668-2.668,6.668"/>
</svg>
